<svg width="520" height="210" viewBox="0 0 520 210" fill="none" xmlns="http://www.w3.org/2000/svg" role="img" aria-labelledby="title desc">
  <title id="title">SuperCare</title>
  <desc id="desc">SuperCare medical cross logo with heart and orbit swoosh</desc>
  <defs>
    <linearGradient id="cross" x1="138" y1="28" x2="248" y2="156" gradientUnits="userSpaceOnUse">
      <stop stop-color="#55F3C8"/>
      <stop offset="0.55" stop-color="#00C8E8"/>
      <stop offset="1" stop-color="#0875D1"/>
    </linearGradient>
    <linearGradient id="heart" x1="196" y1="67" x2="268" y2="142" gradientUnits="userSpaceOnUse">
      <stop stop-color="#6AF5A7"/>
      <stop offset="0.52" stop-color="#1DD9CA"/>
      <stop offset="1" stop-color="#0278D6"/>
    </linearGradient>
    <linearGradient id="swooshA" x1="82" y1="141" x2="344" y2="74" gradientUnits="userSpaceOnUse">
      <stop stop-color="#0069D9"/>
      <stop offset="0.54" stop-color="#00C6E8"/>
      <stop offset="1" stop-color="#9AF874"/>
    </linearGradient>
    <linearGradient id="word" x1="52" y1="172" x2="470" y2="172" gradientUnits="userSpaceOnUse">
      <stop stop-color="#005FD8"/>
      <stop offset="0.55" stop-color="#008EEE"/>
      <stop offset="1" stop-color="#00C8B5"/>
    </linearGradient>
    <filter id="softShadow" x="40" y="0" width="360" height="170" filterUnits="userSpaceOnUse" color-interpolation-filters="sRGB">
      <feDropShadow dx="0" dy="5" stdDeviation="5" flood-color="#0267B7" flood-opacity="0.28"/>
    </filter>
  </defs>

  <g filter="url(#softShadow)">
    <path d="M170 24h66c7.7 0 14 6.3 14 14v43h43c7.7 0 14 6.3 14 14v45c0 7.7-6.3 14-14 14h-43v43c0 7.7-6.3 14-14 14h-66c-7.7 0-14-6.3-14-14v-43h-43c-7.7 0-14-6.3-14-14V95c0-7.7 6.3-14 14-14h43V38c0-7.7 6.3-14 14-14Z" fill="url(#cross)"/>
    <path d="M218.5 152.5c-34.4-22.8-57-43.6-57-67.5 0-17.8 13.2-31 30.2-31 11.2 0 21 5.6 26.8 14.2C224.3 59.6 234.1 54 245.3 54c17 0 30.2 13.2 30.2 31 0 23.9-22.6 44.7-57 67.5Z" fill="url(#heart)" stroke="#032A65" stroke-opacity="0.22" stroke-width="5"/>
    <path d="M218.5 93v35M201 110.5h35" stroke="#E9FFF5" stroke-width="10" stroke-linecap="round"/>
    <path d="M92 138c62 38 177 31 252-37-43 78-198 104-270 55-20-14-23-35-9-54 4 15 12 26 27 36Z" fill="url(#swooshA)"/>
    <path d="M69 113c47 47 143 47 230-3-74 62-184 66-235 19-17-16-18-38-2-55-2 16 1 28 7 39Z" fill="#02A9E7"/>
    <path d="M319 35c3 18 13 28 31 31-18 3-28 13-31 31-3-18-13-28-31-31 18-3 28-13 31-31Z" fill="#77F8D2"/>
    <path d="M340 128c2 10 8 16 18 18-10 2-16 8-18 18-2-10-8-16-18-18 10-2 16-8 18-18Z" fill="#52E8D6"/>
  </g>

  <text x="260" y="194" text-anchor="middle" font-family="Arial, Helvetica, sans-serif" font-size="62" font-weight="800" fill="url(#word)">SuperCare</text>
</svg>
